# xmcd
#
# Track frame offsets: 
#        150
#        27582
#        59783
#        78296
#        102306
#        121837
#        133449
#        164850
#        184768
#        215133
#
# Disc length: 3048 seconds
#
# Revision: 1
# Processed by: cddbd v1.5.2PL0 Copyright (c) Steve Scherf et al.
# Submitted via: ExactAudioCopy v1.0b3
#
DISCID=9f0be60a
DTITLE=Tomasz Kisiel - Guitar Stories
DYEAR=2002
DGENRE=New Age
TTITLE0=Long Time Ago
TTITLE1=Morning Lights
TTITLE2=Journey To Unknown
TTITLE3=What The Night Tells
TTITLE4=Fly With Me
TTITLE5=Talking With Father
TTITLE6=Song For "A"
TTITLE7=Driving To Far
TTITLE8=Liquid Dreams
TTITLE9=Sleepless Earth
EXTD=YEAR: 2002
EXTT0=
EXTT1=
EXTT2=
EXTT3=
EXTT4=
EXTT5=
EXTT6=
EXTT7=
EXTT8=
EXTT9=
PLAYORDER=
